<svg xmlns="http://www.w3.org/2000/svg" width="512" height="448.122" viewBox="0 0 512 448.122"><path d="M458.4,64.3C400.6,15.7,311.3,23,256,79.3,200.7,23,111.4,15.6,53.6,64.3-21.6,127.6-10.6,230.8,43,285.5L218.4,464.2a52.523,52.523,0,0,0,75.2.1L469,285.6C522.5,230.9,533.7,127.7,458.4,64.3ZM434.8,251.8,259.4,430.5c-2.4,2.4-4.4,2.4-6.8,0L77.2,251.8c-36.5-37.2-43.9-107.6,7.3-150.7,38.9-32.7,98.9-27.8,136.5,10.5l35,35.7,35-35.7c37.8-38.5,97.8-43.2,136.5-10.6,51.1,43.1,43.5,113.9,7.3,150.8Z" transform="translate(0 -31.978)" fill="#97202c"/></svg>