<?xml version="1.0" standalone="no"?><svg xmlns="http://www.w3.org/2000/svg" viewBox="0 0 1440 320"><path fill="#0099ff" fill-opacity="1" d="M0,64L7.1,69.3C14.1,75,28,85,42,122.7C56.5,160,71,224,85,213.3C98.8,203,113,117,127,80C141.2,43,155,53,169,64C183.5,75,198,85,212,80C225.9,75,240,53,254,48C268.2,43,282,53,296,96C310.6,139,325,213,339,256C352.9,299,367,309,381,277.3C395.3,245,409,171,424,117.3C437.6,64,452,32,466,58.7C480,85,494,171,508,186.7C522.4,203,536,149,551,149.3C564.7,149,579,203,593,202.7C607.1,203,621,149,635,149.3C649.4,149,664,203,678,213.3C691.8,224,706,192,720,186.7C734.1,181,748,203,762,192C776.5,181,791,139,805,106.7C818.8,75,833,53,847,37.3C861.2,21,875,11,889,16C903.5,21,918,43,932,90.7C945.9,139,960,213,974,245.3C988.2,277,1002,267,1016,261.3C1030.6,256,1045,256,1059,218.7C1072.9,181,1087,107,1101,90.7C1115.3,75,1129,117,1144,138.7C1157.6,160,1172,160,1186,176C1200,192,1214,224,1228,245.3C1242.4,267,1256,277,1271,245.3C1284.7,213,1299,139,1313,90.7C1327.1,43,1341,21,1355,48C1369.4,75,1384,149,1398,170.7C1411.8,192,1426,160,1433,144L1440,128L1440,320L1432.9,320C1425.9,320,1412,320,1398,320C1383.5,320,1369,320,1355,320C1341.2,320,1327,320,1313,320C1298.8,320,1285,320,1271,320C1256.5,320,1242,320,1228,320C1214.1,320,1200,320,1186,320C1171.8,320,1158,320,1144,320C1129.4,320,1115,320,1101,320C1087.1,320,1073,320,1059,320C1044.7,320,1031,320,1016,320C1002.4,320,988,320,974,320C960,320,946,320,932,320C917.6,320,904,320,889,320C875.3,320,861,320,847,320C832.9,320,819,320,805,320C790.6,320,776,320,762,320C748.2,320,734,320,720,320C705.9,320,692,320,678,320C663.5,320,649,320,635,320C621.2,320,607,320,593,320C578.8,320,565,320,551,320C536.5,320,522,320,508,320C494.1,320,480,320,466,320C451.8,320,438,320,424,320C409.4,320,395,320,381,320C367.1,320,353,320,339,320C324.7,320,311,320,296,320C282.4,320,268,320,254,320C240,320,226,320,212,320C197.6,320,184,320,169,320C155.3,320,141,320,127,320C112.9,320,99,320,85,320C70.6,320,56,320,42,320C28.2,320,14,320,7,320L0,320Z"></path></svg>